<?xml version="1.0" standalone="no"?>
<!DOCTYPE svg PUBLIC "-//W3C//DTD SVG 20010904//EN"
 "http://www.w3.org/TR/2001/REC-SVG-20010904/DTD/svg10.dtd">
<svg version="1.0" xmlns="http://www.w3.org/2000/svg"
 width="154.5000000pt" height="62.7000000pt" viewBox="0 0 2840.000000 760.000000"
 preserveAspectRatio="xMidYMid meet">

<g transform="translate(0.000000,760.000000) scale(0.100000,-0.100000)"
fill="#000000" stroke="none">
<path d="M3160 4830 l0 -1950 450 0 450 0 0 1950 0 1950 -450 0 -450 0 0
-1950z"/>
<path d="M13540 6098 l0 -681 -29 39 c-38 52 -165 173 -221 210 -171 114 -365
178 -575 190 -731 41 -1282 -481 -1365 -1295 -79 -790 285 -1464 899 -1662
286 -92 639 -75 886 42 138 65 273 174 361 293 l44 58 0 -206 0 -206 450 0
450 0 0 1950 0 1950 -450 0 -450 0 0 -682z m-476 -1044 c187 -45 366 -213 430
-404 39 -117 49 -198 43 -344 -8 -217 -58 -350 -181 -483 -75 -81 -161 -137
-261 -169 -67 -22 -98 -26 -195 -26 -97 0 -128 4 -195 26 -198 64 -353 230
-415 446 -31 106 -39 325 -16 439 9 46 26 107 37 136 42 113 150 242 260 311
132 84 321 110 493 68z"/>
<path d="M5595 5854 c-200 -28 -301 -56 -431 -122 -401 -202 -660 -608 -724
-1135 -19 -149 -8 -484 20 -622 97 -485 357 -844 742 -1025 314 -147 735 -147
1030 0 137 68 281 187 360 296 l33 46 3 -206 2 -206 450 0 450 0 0 1470 0
1470 -450 0 -450 0 -1 -207 c0 -199 -1 -207 -17 -183 -139 203 -382 357 -647
410 -54 11 -321 21 -370 14z m540 -796 c166 -36 333 -170 416 -336 97 -196 99
-535 3 -737 -77 -163 -226 -290 -400 -341 -81 -23 -257 -23 -339 0 -220 65
-389 246 -445 479 -75 311 2 623 197 796 61 55 163 112 233 132 97 26 230 29
335 7z"/>
<path d="M9698 5840 c-76 -9 -202 -41 -280 -70 -133 -50 -305 -171 -392 -277
l-46 -55 0 191 0 191 -450 0 -450 0 0 -1470 0 -1470 450 0 450 0 0 858 c0 950
-1 936 65 1069 66 133 175 226 313 265 81 23 251 27 332 8 151 -35 277 -135
343 -271 67 -138 67 -132 67 -1079 l0 -850 450 0 451 0 -4 968 c-4 1054 -2
1012 -63 1227 -81 284 -282 533 -532 659 -185 93 -458 134 -704 106z"/>
<path d="M16900 4070 l0 -1190 670 0 670 0 -2 223 -3 222 -382 3 -383 2 0 965
0 965 -285 0 -285 0 0 -1190z"/>
<path d="M18450 4070 l0 -1190 290 0 290 0 0 1190 0 1190 -290 0 -290 0 0
-1190z"/>
<path d="M19213 5246 c10 -26 798 -2248 819 -2308 l20 -58 361 0 362 0 383
1083 c211 595 401 1130 422 1190 l39 107 -306 -2 -306 -3 -38 -115 c-355
-1081 -552 -1670 -558 -1665 -3 4 -137 405 -297 893 l-291 887 -308 3 c-267 2
-307 0 -302 -12z"/>
<path d="M21800 4070 l0 -1190 725 0 725 0 0 230 0 230 -437 2 -438 3 -3 263
-2 262 390 0 390 0 0 220 0 220 -387 2 -388 3 -3 243 -2 242 440 0 440 0 0
230 0 230 -725 0 -725 0 0 -1190z"/>
<path d="M24148 4628 l-3 -303 -292 -3 -293 -2 0 -255 0 -255 295 0 295 0 0
-300 0 -300 274 0 274 0 0 248 c1 136 1 271 1 300 l1 52 295 0 295 0 0 255 0
255 -295 0 c-229 0 -295 3 -296 13 0 6 0 144 -1 305 l0 292 -274 0 -274 0 -2
-302z"/>
<path d="M170 1370 l0 -260 13990 0 13990 0 0 260 0 260 -13990 0 -13990 0 0
-260z"/>
</g>
</svg>
