<?xml version="1.0" standalone="no"?>
<!DOCTYPE svg PUBLIC "-//W3C//DTD SVG 20010904//EN"
 "http://www.w3.org/TR/2001/REC-SVG-20010904/DTD/svg10.dtd">
<svg version="1.0" xmlns="http://www.w3.org/2000/svg"
 width="154.5000000pt" height="62.7000000pt" viewBox="0 0 2840.000000 760.000000"
 preserveAspectRatio="xMidYMid meet">

<g transform="translate(0.000000,760.000000) scale(0.100000,-0.100000)"
fill="#000000" stroke="none">
<path d="M6480 6345 l0 -695 -205 0 -205 0 0 654 0 653 -300 1 -300 0 0 -1734
0 -1734 300 0 300 0 2 818 3 817 200 0 200 0 3 -882 2 -883 305 0 305 0 0 135
c0 74 0 857 0 1740 0 883 0 1650 0 1705 l0 100 -305 0 -305 0 0 -695z"/>
<path d="M3080 6410 l0 -260 620 0 620 0 0 -250 0 -250 -615 0 -615 0 2 -792
3 -793 360 3 c644 4 1211 43 1600 108 160 26 195 36 195 53 0 9 -11 95 -24
191 -14 96 -28 199 -31 229 l-7 53 -32 -6 c-279 -58 -855 -106 -1263 -106
l-153 0 0 275 0 275 615 0 615 0 0 765 0 765 -945 0 -945 0 0 -260z"/>
<path d="M8160 5465 l0 -1165 1690 0 1690 0 0 260 0 260 -1370 0 -1370 0 0
640 0 640 1348 2 1347 3 3 263 2 262 -1670 0 -1670 0 0 -1165z"/>
<path d="M16440 3845 l0 -1595 205 0 205 0 0 810 0 810 225 0 225 0 0 170 0
170 -225 0 -225 0 0 615 0 615 -205 0 -205 0 0 -1595z"/>
<path d="M19610 3845 l0 -1595 205 0 205 0 0 1595 0 1595 -205 0 -205 0 0
-1595z"/>
<path d="M18150 5206 c-98 -21 -173 -53 -254 -106 -196 -132 -327 -363 -388
-685 -18 -100 -22 -155 -23 -330 0 -212 6 -267 46 -444 44 -192 131 -354 258
-482 93 -93 169 -141 286 -180 62 -21 88 -24 230 -24 153 0 164 1 246 31 297
106 482 373 556 804 23 135 23 440 0 582 -75 451 -283 735 -602 823 -82 22
-272 28 -355 11z m285 -351 c184 -89 295 -382 295 -775 0 -235 -32 -405 -105
-556 -35 -72 -57 -103 -109 -151 -80 -75 -138 -98 -235 -91 -85 6 -131 31
-204 107 -127 133 -191 366 -191 691 1 248 30 410 102 563 60 126 150 214 245
238 55 14 144 3 202 -26z"/>
<path d="M22547 5203 c-4 -3 -7 -120 -7 -260 l0 -253 -680 0 -680 0 0 255 0
255 -205 0 -205 0 0 -815 0 -815 1095 0 1095 0 0 820 0 820 -203 0 c-112 0
-207 -3 -210 -7z m-7 -1068 l0 -235 -680 0 -680 0 0 235 0 235 680 0 680 0 0
-235z"/>
<path d="M14470 5005 l0 -165 525 0 525 0 0 -270 0 -270 -515 0 -515 0 0 -660
0 -660 253 0 c449 0 929 25 1262 65 119 14 225 32 232 38 3 4 -28 320 -32 325
-1 2 -65 -6 -141 -17 -248 -36 -761 -71 -1046 -71 l-118 0 0 325 0 325 518 2
517 3 3 598 2 597 -735 0 -735 0 0 -165z"/>
<path d="M24178 4378 l-3 -323 -307 -3 -308 -2 0 -270 0 -270 310 0 310 0 0
-320 0 -320 288 2 287 3 1 295 c1 162 2 305 3 318 l1 22 310 0 310 0 0 270 0
270 -312 2 -312 3 -1 320 0 320 -287 3 -288 2 -2 -322z"/>
<path d="M3750 2970 l0 -760 1735 0 1735 0 0 260 0 260 -1410 0 -1410 0 0 500
0 500 -325 0 -325 0 0 -760z"/>
<path d="M7587 3253 c-4 -3 -7 -120 -7 -260 l0 -253 2240 0 2240 0 0 260 0
260 -2233 0 c-1229 0 -2237 -3 -2240 -7z"/>
<path d="M20420 2835 l0 -165 1440 0 1440 0 0 165 0 165 -1440 0 -1440 0 0
-165z"/>
<path d="M170 1150 l0 -260 13990 0 13990 0 0 260 0 260 -13990 0 -13990 0 0
-260z"/>
</g>
</svg>
