<?xml version="1.0" standalone="no"?>
<!DOCTYPE svg PUBLIC "-//W3C//DTD SVG 20010904//EN"
 "http://www.w3.org/TR/2001/REC-SVG-20010904/DTD/svg10.dtd">
<svg version="1.0" xmlns="http://www.w3.org/2000/svg"
 width="154.5000000pt" height="62.7000000pt" viewBox="0 0 2208.000000 858.000000"
 preserveAspectRatio="xMidYMid meet">

<g transform="translate(0.000000,858.000000) scale(0.100000,-0.100000)"
fill="#000000" stroke="none">
<path d="M4960 5305 l0 -2105 490 0 490 0 -2 2103 -3 2102 -487 3 -488 2 0
-2105z"/>
<path d="M16180 6673 l-1 -738 -21 30 c-12 17 -58 68 -103 113 -264 274 -683
393 -1114 316 -546 -98 -973 -549 -1096 -1158 -90 -448 -44 -911 128 -1277
198 -425 558 -710 990 -783 126 -22 355 -22 476 -1 299 52 542 200 709 434
l32 44 0 -226 0 -227 485 0 485 0 0 2105 0 2105 -485 0 -485 0 0 -737z m-500
-1128 c172 -52 333 -191 420 -364 60 -119 92 -354 70 -521 -26 -201 -92 -344
-215 -466 -133 -131 -278 -187 -480 -187 -103 0 -131 4 -200 27 -106 36 -186
86 -266 166 -145 145 -219 347 -219 595 0 238 68 428 205 570 97 101 226 171
358 195 74 13 262 4 327 -15z"/>
<path d="M7580 6410 c-452 -44 -846 -326 -1060 -758 -129 -261 -184 -522 -184
-867 1 -345 59 -605 194 -875 197 -393 554 -665 964 -735 122 -20 347 -21 466
-1 295 48 578 221 732 446 16 24 17 15 17 -197 l1 -223 485 0 485 0 0 1585 0
1585 -485 0 -485 0 0 -221 0 -221 -43 58 c-72 97 -195 207 -307 272 -108 65
-272 124 -390 142 -97 14 -294 20 -390 10z m630 -865 c185 -56 364 -218 436
-395 13 -31 33 -104 45 -161 27 -132 23 -328 -10 -454 -62 -240 -235 -431
-454 -501 -69 -22 -101 -26 -202 -27 -139 0 -215 16 -315 69 -180 94 -302 253
-357 463 -21 78 -25 122 -27 236 -1 152 11 237 52 350 80 224 295 403 527 439
60 9 251 -3 305 -19z"/>
<path d="M12075 6400 c-320 -28 -614 -175 -787 -393 l-38 -49 0 206 0 206
-490 0 -490 0 0 -1585 0 -1585 490 0 490 0 0 920 c0 986 0 994 51 1122 44 111
144 225 247 281 164 89 447 89 615 0 76 -40 185 -155 224 -233 71 -146 67 -81
70 -1137 l4 -953 485 0 485 0 -4 1053 -3 1052 -27 120 c-33 149 -58 227 -108
333 -130 279 -359 485 -647 582 -159 53 -379 77 -567 60z"/>
<path d="M540 1465 l0 -425 10515 0 10515 0 0 425 0 425 -10515 0 -10515 0 0
-425z"/>
</g>
</svg>
