<?xml version="1.0" standalone="no"?>
<!DOCTYPE svg PUBLIC "-//W3C//DTD SVG 20010904//EN"
 "http://www.w3.org/TR/2001/REC-SVG-20010904/DTD/svg10.dtd">
<svg version="1.0" xmlns="http://www.w3.org/2000/svg"
 width="154.5000000pt" height="62.7000000pt" viewBox="0 0 2790.000000 822.000000"
 preserveAspectRatio="xMidYMid meet">

<g transform="translate(0.000000,822.000000) scale(0.100000,-0.100000)"
fill="#000000" stroke="none">
<path d="M3520 4595 l0 -1845 425 0 425 0 0 1845 0 1845 -425 0 -425 0 0
-1845z"/>
<path d="M13340 5799 l0 -641 -39 49 c-147 184 -371 311 -629 354 -90 15 -316
12 -410 -6 -238 -45 -448 -159 -614 -333 -241 -253 -368 -583 -385 -1002 -18
-469 126 -888 402 -1166 168 -168 368 -275 600 -319 107 -21 335 -20 443 0
251 48 455 170 596 358 l36 48 2 -193 3 -193 425 0 425 0 3 1843 2 1842 -430
0 -430 0 0 -641z m-461 -984 c156 -37 315 -164 385 -307 59 -121 71 -181 71
-363 0 -182 -12 -242 -72 -365 -47 -97 -150 -200 -249 -252 -228 -120 -509
-80 -688 96 -102 101 -160 216 -187 373 -15 84 -6 301 15 378 60 219 228 390
432 439 78 19 214 19 293 1z"/>
<path d="M5845 5569 c-481 -31 -881 -363 -1045 -869 -57 -175 -74 -298 -74
-550 0 -191 3 -242 22 -342 96 -507 388 -881 804 -1027 127 -44 234 -62 383
-62 251 0 415 45 599 164 89 59 183 145 234 216 l32 43 2 -193 3 -194 423 -3
422 -2 0 1395 0 1395 -422 -2 -423 -3 -3 -193 -2 -193 -45 58 c-126 169 -326
291 -560 344 -75 16 -237 25 -350 18z m488 -754 c98 -20 200 -78 277 -155 80
-81 126 -157 159 -263 22 -74 25 -99 25 -252 0 -153 -3 -178 -25 -252 -33
-106 -79 -182 -159 -263 -227 -229 -604 -229 -830 1 -133 135 -180 258 -187
489 -6 168 13 275 70 389 39 80 157 203 239 250 115 65 285 87 431 56z"/>
<path d="M9810 5563 c-310 -14 -571 -136 -753 -352 l-37 -45 0 187 0 187 -422
-2 -423 -3 0 -1390 0 -1390 422 -3 422 -2 4 822 c3 735 5 830 20 886 38 142
114 251 218 314 84 51 144 69 255 75 124 8 211 -9 307 -59 93 -48 152 -111
202 -213 65 -133 65 -136 65 -1025 l0 -800 423 2 422 3 0 905 c0 989 1 962
-60 1175 -47 161 -125 300 -240 424 -116 125 -294 228 -468 271 -88 22 -256
37 -357 33z"/>
<path d="M16520 3880 l0 -1130 633 2 632 3 3 213 2 212 -360 0 -360 0 0 915 0
915 -275 0 -275 0 0 -1130z"/>
<path d="M17990 3880 l0 -1130 273 2 272 3 3 1128 2 1127 -275 0 -275 0 0
-1130z"/>
<path d="M18730 4928 c21 -62 706 -1994 762 -2150 l10 -28 339 0 c317 0 339 1
348 18 5 10 186 515 401 1123 216 607 394 1107 396 1111 3 5 -127 8 -288 8
l-293 0 -62 -187 c-365 -1109 -497 -1503 -503 -1496 -4 4 -130 385 -281 845
l-274 838 -292 0 -292 0 29 -82z"/>
<path d="M21152 3883 l3 -1128 688 -3 687 -2 0 225 0 225 -415 0 -415 0 0 245
0 245 370 0 370 0 0 210 0 210 -367 2 -368 3 -3 228 -2 227 415 0 415 0 0 220
0 220 -690 0 -690 0 2 -1127z"/>
<path d="M23378 4413 l-3 -288 -277 -3 -278 -2 0 -245 0 -245 280 0 280 0 0
-285 0 -285 260 0 260 0 0 285 0 285 278 2 277 3 3 243 2 242 -280 0 -280 0 0
290 0 290 -260 0 -260 0 -2 -287z"/>
<path d="M690 1325 l0 -245 13235 0 13235 0 0 245 0 245 -13235 0 -13235 0 0
-245z"/>
</g>
</svg>
